<?xml version="1.0" standalone="no"?>
<!DOCTYPE svg PUBLIC "-//W3C//DTD SVG 20010904//EN"
 "http://www.w3.org/TR/2001/REC-SVG-20010904/DTD/svg10.dtd">
<svg version="1.0" xmlns="http://www.w3.org/2000/svg"
 width="700.000000pt" height="700.000000pt" viewBox="0 0 700.000000 700.000000"
 preserveAspectRatio="xMidYMid meet">
<metadata>
Created by potrace 1.14, written by Peter Selinger 2001-2017
</metadata>
<g transform="translate(0.000000,700.000000) scale(0.100000,-0.100000)"
fill="#000000" stroke="none">
<path d="M3280 6994 c-19 -2 -84 -9 -145 -14 -639 -62 -1264 -315 -1795 -726
-149 -115 -481 -446 -595 -594 -410 -532 -653 -1132 -727 -1795 -17 -155 -17
-575 0 -730 75 -673 332 -1300 748 -1820 114 -143 339 -372 484 -494 537 -451
1163 -717 1885 -803 142 -17 586 -17 730 0 682 79 1268 318 1802 734 138 107
389 351 512 498 451 538 717 1162 803 1885 16 139 16 595 0 730 -77 629 -275
1158 -620 1649 -234 333 -577 668 -917 896 -460 308 -968 495 -1535 566 -117
15 -552 27 -630 18z m2071 -2966 c0 -216 3 -269 12 -254 31 50 94 108 146 133
50 25 67 28 161 28 95 0 111 -3 161 -28 105 -51 177 -156 199 -289 5 -35 10
-213 10 -395 l0 -333 -105 0 -105 0 0 293 c0 326 -9 411 -46 474 -70 121 -263
136 -362 29 -68 -73 -72 -101 -72 -473 l0 -323 -105 0 -105 0 0 705 0 705 105
0 105 0 1 -272z m-471 27 l0 -135 100 0 101 0 -3 -82 -3 -83 -97 -3 -98 -3 0
-297 c0 -178 4 -312 11 -335 14 -52 56 -77 132 -77 l57 0 0 -80 0 -79 -36 -7
c-58 -11 -187 2 -235 23 -24 11 -59 35 -77 54 -57 59 -62 94 -62 466 l0 333
-75 0 -75 0 0 85 0 84 73 3 72 3 3 133 3 132 104 0 105 0 0 -135z m-3348 -126
c118 -25 216 -98 260 -194 23 -49 23 -57 26 -447 l3 -398 -106 0 -105 0 0 81
0 80 -55 -59 c-77 -84 -151 -116 -265 -117 -151 0 -253 54 -309 166 -26 52
-31 74 -31 132 0 92 15 139 62 192 74 83 186 119 413 130 72 3 143 9 159 12
l29 5 -6 64 c-10 129 -76 189 -206 187 -108 -2 -189 -49 -207 -119 -6 -23 -9
-24 -105 -24 l-99 0 0 28 c0 43 56 146 102 187 46 42 126 82 190 94 64 13 190
13 250 0z m908 1 c122 -23 220 -92 267 -188 l28 -57 3 -397 3 -398 -110 0
-111 0 0 76 0 76 -45 -50 c-86 -96 -221 -139 -351 -112 -162 34 -256 140 -258
293 -1 95 21 152 82 210 79 73 179 101 402 112 182 9 170 3 170 81 0 73 -15
109 -59 147 -58 49 -182 56 -263 16 -40 -20 -88 -76 -88 -102 0 -15 -14 -17
-104 -17 l-104 0 12 54 c7 29 23 69 35 89 48 77 153 147 253 166 61 12 176 13
238 1z m922 -1 c122 -26 227 -105 286 -216 42 -80 61 -159 64 -268 l3 -90
-364 -3 -364 -2 7 -54 c3 -29 13 -70 21 -90 22 -53 83 -116 133 -138 59 -27
174 -27 233 -1 47 21 105 74 115 105 5 16 17 18 105 18 114 0 114 0 73 -86
-84 -178 -316 -272 -542 -219 -172 41 -294 166 -337 346 -20 86 -20 264 1 343
47 180 172 314 329 352 65 16 170 17 237 3z m960 -19 c108 -40 192 -140 213
-252 l7 -38 -100 0 -100 0 -7 31 c-11 49 -73 104 -134 119 -153 36 -285 -60
-238 -173 21 -49 67 -70 240 -112 222 -53 287 -88 332 -178 51 -103 26 -237
-61 -321 -101 -98 -288 -139 -465 -102 -80 17 -136 45 -189 92 -45 41 -100
143 -100 186 l0 28 105 0 c95 0 105 -2 105 -18 0 -34 56 -98 101 -116 56 -23
186 -23 233 -1 49 24 77 58 82 102 10 83 -39 121 -204 158 -268 61 -358 115
-391 240 -45 167 60 321 254 372 76 19 246 11 317 -17z"/>
<path d="M1445 3348 c-156 -10 -213 -27 -255 -74 -55 -63 -36 -160 39 -202
113 -62 282 -17 346 93 22 37 28 59 29 118 1 57 -2 72 -14 73 -8 1 -73 -3
-145 -8z"/>
<path d="M2440 3353 c-30 -2 -99 -7 -152 -12 -149 -14 -208 -58 -208 -153 0
-93 66 -143 185 -142 111 1 197 51 239 137 20 43 23 178 4 175 -7 -1 -38 -3
-68 -5z"/>
<path d="M3175 3756 c-57 -18 -92 -43 -125 -90 -24 -35 -60 -130 -60 -158 0
-4 115 -8 256 -8 l257 0 -5 44 c-7 57 -44 131 -85 166 -35 31 -118 60 -167 59
-17 0 -49 -6 -71 -13z"/>
</g>
</svg>
