<?xml version="1.0" standalone="no"?>
<!DOCTYPE svg PUBLIC "-//W3C//DTD SVG 20010904//EN"
 "http://www.w3.org/TR/2001/REC-SVG-20010904/DTD/svg10.dtd">
<svg version="1.0" xmlns="http://www.w3.org/2000/svg"
 width="700.000000pt" height="700.000000pt" viewBox="0 0 700.000000 700.000000"
 preserveAspectRatio="xMidYMid meet">
<metadata>
Created by potrace 1.14, written by Peter Selinger 2001-2017
</metadata>
<g transform="translate(0.000000,700.000000) scale(0.100000,-0.100000)"
fill="#000000" stroke="none">
<path d="M3390 6802 c-36 -9 -87 -30 -115 -46 -33 -19 -235 -214 -596 -575
-530 -530 -548 -548 -585 -626 -38 -77 -39 -81 -39 -190 0 -108 1 -113 37
-186 35 -70 68 -105 600 -635 615 -613 599 -600 741 -624 51 -9 83 -9 135 0
144 25 134 16 753 638 659 661 624 615 624 807 0 108 -1 113 -38 190 -38 78
-51 92 -595 633 -599 594 -604 598 -731 622 -73 14 -114 12 -191 -8z"/>
<path d="M1547 4929 c-32 -5 -89 -23 -125 -41 -61 -29 -115 -79 -608 -572
-298 -298 -555 -562 -572 -587 -54 -80 -75 -160 -70 -269 3 -82 9 -105 37
-165 31 -66 69 -105 590 -627 515 -516 561 -559 622 -588 93 -43 172 -56 257
-43 148 23 121 0 744 621 380 379 575 581 592 612 72 133 72 302 -1 430 -15
27 -248 269 -576 597 -432 433 -563 559 -607 582 -91 48 -185 65 -283 50z"/>
<path d="M5293 4905 c-125 -35 -131 -40 -687 -594 -290 -289 -548 -552 -572
-585 -91 -120 -110 -297 -49 -436 27 -61 65 -102 579 -618 303 -305 569 -566
591 -581 95 -66 242 -91 355 -61 113 30 132 47 707 623 328 328 561 570 576
597 78 137 73 317 -14 455 -36 58 -1026 1055 -1112 1120 -31 24 -83 53 -115
65 -74 28 -190 35 -259 15z"/>
<path d="M3430 3030 c-25 -6 -74 -24 -110 -41 -59 -28 -119 -85 -621 -588
-505 -504 -559 -562 -587 -621 -61 -127 -61 -263 0 -390 28 -59 83 -118 572
-608 297 -299 561 -556 585 -572 148 -99 338 -101 486 -5 28 18 296 280 596
581 599 602 586 586 611 732 9 55 9 85 -1 138 -26 144 -14 129 -610 728 -300
301 -568 563 -596 581 -93 60 -224 86 -325 65z"/>
</g>
</svg>
